<?xml version="1.0" standalone="no"?><!DOCTYPE svg PUBLIC "-//W3C//DTD SVG 1.1//EN" "http://www.w3.org/Graphics/SVG/1.1/DTD/svg11.dtd"><svg t="1577709921030" class="icon" viewBox="0 0 1024 1024" version="1.1" xmlns="http://www.w3.org/2000/svg" p-id="14927" xmlns:xlink="http://www.w3.org/1999/xlink" width="200" height="200"><defs><style type="text/css"></style></defs><path d="M512 2.56C231.424 2.56 3.584 229.888 3.584 510.976S231.424 1018.88 512 1018.88s508.416-227.328 508.416-508.416S793.088 2.56 512 2.56z m0 922.112c-228.864 0-414.208-185.344-414.208-414.208S283.136 96.256 512 96.256s414.208 185.344 414.208 414.208-185.344 414.208-414.208 414.208z" fill="#333333" p-id="14928"></path><path d="M409.6 730.112c-19.968 0-35.84-15.872-35.84-35.84v-332.8c0-19.968 15.872-35.84 35.84-35.84s35.84 15.872 35.84 35.84v332.8c0 19.968-15.872 35.84-35.84 35.84z m204.8 0c-19.968 0-35.84-15.872-35.84-35.84v-332.8c0-19.968 15.872-35.84 35.84-35.84s35.84 15.872 35.84 35.84v332.8c0 19.968-15.872 35.84-35.84 35.84z" fill="#2E72F4" p-id="14929"></path></svg>