<?xml version="1.0" standalone="no"?><!DOCTYPE svg PUBLIC "-//W3C//DTD SVG 1.1//EN" "http://www.w3.org/Graphics/SVG/1.1/DTD/svg11.dtd"><svg t="1577709979913" class="icon" viewBox="0 0 1024 1024" version="1.1" xmlns="http://www.w3.org/2000/svg" p-id="20648" xmlns:xlink="http://www.w3.org/1999/xlink" width="200" height="200"><defs><style type="text/css"></style></defs><path d="M513.463 112.152c220.404 0 399.847 179.444 399.847 399.848S733.867 911.848 513.463 911.848 113.615 732.404 113.615 512s178.956-399.848 399.848-399.848z m0-63.39C257.463 48.762 50.225 256 50.225 512s207.238 463.238 463.238 463.238S976.7 768 976.7 512 769.463 48.762 513.463 48.762" p-id="20649"></path><path d="M423.741 727.528c-30.232 0-51.688-24.381-51.688-57.54V354.5c0-33.158 21.943-57.539 51.688-57.539 11.215 0 22.43 3.413 32.183 9.265l273.066 157.5c19.505 11.216 30.72 28.77 30.72 48.275s-11.215 37.059-30.72 48.274L455.924 717.775c-9.753 6.34-20.968 9.265-32.183 9.753z m11.703-360.35V657.31l251.124-144.822-251.124-145.31z" p-id="20650"></path></svg>