<?xml version="1.0" standalone="no"?><!DOCTYPE svg PUBLIC "-//W3C//DTD SVG 1.1//EN" "http://www.w3.org/Graphics/SVG/1.1/DTD/svg11.dtd"><svg t="1578115890888" class="icon" viewBox="0 0 1024 1024" version="1.1" xmlns="http://www.w3.org/2000/svg" p-id="2671" xmlns:xlink="http://www.w3.org/1999/xlink" width="200" height="200"><defs><style type="text/css"></style></defs><path d="M917.3 874.7h-42.7v42.7c0 23.6-19.1 42.7-42.7 42.7s-42.7-19.1-42.7-42.7v-42.7H704c-23.6 0-42.7-19.1-42.7-42.7s19.1-42.7 42.7-42.7h85.3V704c0-23.6 19.1-42.7 42.7-42.7s42.7 19.1 42.7 42.7v85.3h42.7c23.6 0 42.7 19.1 42.7 42.7s-19.2 42.7-42.8 42.7zM832 597.3c-23.6 0-42.7-19.1-42.7-42.7V384c0-23.6 19.1-42.7 42.7-42.7s42.7 19.1 42.7 42.7v170.7c0 23.5-19.1 42.6-42.7 42.6z m0-320c-23.6 0-42.7-19.1-42.7-42.7V192c0-23.6-19.1-42.7-42.7-42.7H704c-23.6 0-42.7-19.1-42.7-42.7S680.4 64 704 64h85.3c47.1 0 85.3 38.2 85.3 85.3v85.3c0.1 23.6-19 42.7-42.6 42.7zM554.7 874.7H384c-23.6 0-42.7-19.1-42.7-42.7s19.1-42.7 42.7-42.7h170.7c23.6 0 42.7 19.1 42.7 42.7s-19.2 42.7-42.7 42.7z m0-725.4H384c-23.6 0-42.7-19.1-42.7-42.7S360.4 64 384 64h170.7c23.6 0 42.7 19.1 42.7 42.7s-19.2 42.6-42.7 42.6z m-320 725.4h-85.3c-47.1 0-85.3-38.2-85.3-85.3V704c0-23.6 19.1-42.7 42.7-42.7s42.7 19.1 42.7 42.7v42.7c0 23.6 19.1 42.7 42.7 42.7h42.7c23.6 0 42.7 19.1 42.7 42.7s-19.4 42.6-42.9 42.6z m0-725.4H192c-23.6 0-42.7 19.1-42.7 42.7v42.7c0 23.6-19.1 42.7-42.7 42.7S64 258.2 64 234.7v-85.3c0-47.1 38.2-85.3 85.3-85.3h85.3c23.6 0 42.7 19.1 42.7 42.7s-19.1 42.5-42.6 42.5z m-128 192c23.6 0 42.7 19.1 42.7 42.7v170.7c0 23.6-19.1 42.7-42.7 42.7S64 578.2 64 554.7V384c0-23.6 19.1-42.7 42.7-42.7z" fill="#333333" p-id="2672"></path><path d="M642.5 306.5c15.4-37.9 20.1-74.3-6.2-97.1L469 432.2s-51.8 73.1-62.9 94.8c-11.2 21.7-22.4 45.7-31.7 62.7-8.1 14.9-12.1 17.7-16.6 13.4-0.6-0.7-5.1-5.7-7.3-7.4-10.9-9.4-24.4-14.9-39-14.9-35.9 0-64.9 33.2-64.9 74.2s29.1 74.3 64.9 74.3c29.4 0 54.1-22.3 62.2-52.9h-0.1s15.5-48.1 37.9-83c22.4-34.8 57.6-49.9 57.6-49.9l37.1-37.1c-0.1 0.1 120.8-162 136.3-199.9zM311.4 692.2c-17.9 0-32.4-16.6-32.4-37.2 0-20.5 14.5-37.1 32.4-37.1s32.4 16.6 32.4 37.1c0 20.6-14.5 37.2-32.4 37.2z m157.9-185.7c-10.2 0-18.5-8.4-18.5-18.6 0-10.3 8.3-18.5 18.5-18.5 10.3 0 18.6 8.3 18.6 18.5s-8.3 18.6-18.6 18.6z m-56.5-26.4c10.7-16.3 44.8-63.6 44.8-63.6L302.1 209.3c-26.3 22.8-21.6 59.2-6.2 97.1 11.6 28.4 82 126.1 116.9 173.7zM627 580.8c-14.6 0-28.2 5.5-39 14.9-2.2 1.7-6.7 6.7-7.3 7.4-4.5 4.2-8.5 1.5-16.6-13.4-9.3-17-36.5-71.5-39.6-76.7-1.5 2-38.4 39.9-38.4 39.9 12.1 8 28.5 21.3 41 40.6 22.4 34.8 37.9 83 37.9 83 8 30.6 32.8 52.9 62.1 52.9 35.9 0 65.2-33.2 65.2-74.3-0.1-41.1-29.4-74.3-65.3-74.3z m0 111.4c-17.8 0-32.4-16.6-32.4-37.2 0-20.5 14.5-37.1 32.4-37.1s32.4 16.6 32.4 37.1c0 20.6-14.5 37.2-32.4 37.2z" fill="#333333" p-id="2673"></path></svg>