<?xml version="1.0" standalone="no"?><!DOCTYPE svg PUBLIC "-//W3C//DTD SVG 1.1//EN" "http://www.w3.org/Graphics/SVG/1.1/DTD/svg11.dtd"><svg t="1578826258248" class="icon" viewBox="0 0 1024 1024" version="1.1" xmlns="http://www.w3.org/2000/svg" p-id="8106" xmlns:xlink="http://www.w3.org/1999/xlink" width="200" height="200"><defs><style type="text/css"></style></defs><path d="M0 512c0 281.6 230.4 512 512 512s512-230.4 512-512S793.6 0 512 0 0 230.4 0 512z m960 0c0 246.4-201.6 448-448 448S64 758.4 64 512 265.6 64 512 64 960 265.6 960 512zM480 256v435.2l-137.6-137.6c-12.8-12.8-32-12.8-44.8 0s-12.8 32 0 44.8l192 192c12.8 12.8 32 12.8 44.8 0l192-192c6.4-6.4 9.6-16 9.6-22.4s-3.2-16-9.6-22.4c-12.8-12.8-32-12.8-44.8 0L544 691.2V256c0-19.2-12.8-32-32-32s-32 12.8-32 32z" p-id="8107"></path></svg>